<svg width="195" height="40" viewBox="0 0 195 40" fill="none" xmlns="http://www.w3.org/2000/svg">
<path d="M34.1422 5.85781C30.3647 2.08031 25.3422 0 20 0C14.6578 0 9.63531 2.08031 5.85781 5.85781C2.08031 9.63531 0 14.6578 0 20C0 25.3422 2.08039 30.3646 5.85781 34.1422C9.63523 37.9198 14.6578 40 20 40C25.3422 40 30.3647 37.9197 34.1422 34.1422C37.9197 30.3647 40 25.3422 40 20C40 14.6578 37.9196 9.63539 34.1422 5.85781Z" fill="#33CC95"/>
<g clip-path="url(#clip0)">
<path d="M20.5714 8V33.1429" stroke="white" stroke-width="2" stroke-linecap="round" stroke-linejoin="round"/>
<path d="M26.2857 12.5714H17.7143C16.6534 12.5714 15.636 12.9929 14.8859 13.743C14.1357 14.4931 13.7143 15.5106 13.7143 16.5714C13.7143 17.6323 14.1357 18.6497 14.8859 19.3999C15.636 20.15 16.6534 20.5714 17.7143 20.5714H23.4286C24.4894 20.5714 25.5069 20.9929 26.257 21.743C27.0072 22.4932 27.4286 23.5106 27.4286 24.5714C27.4286 25.6323 27.0072 26.6497 26.257 27.3999C25.5069 28.15 24.4894 28.5714 23.4286 28.5714H13.7143" stroke="white" stroke-width="2" stroke-linecap="round" stroke-linejoin="round"/>
</g>
<path d="M64.545 12.248V29H61.185V18.104L56.697 29H54.153L49.641 18.104V29H46.281V12.248H50.097L55.425 24.704L60.753 12.248H64.545ZM69.5709 14.12C68.9789 14.12 68.4829 13.936 68.0829 13.568C67.6989 13.184 67.5069 12.712 67.5069 12.152C67.5069 11.592 67.6989 11.128 68.0829 10.76C68.4829 10.376 68.9789 10.184 69.5709 10.184C70.1629 10.184 70.6509 10.376 71.0349 10.76C71.4349 11.128 71.6349 11.592 71.6349 12.152C71.6349 12.712 71.4349 13.184 71.0349 13.568C70.6509 13.936 70.1629 14.12 69.5709 14.12ZM71.2269 15.704V29H67.8669V15.704H71.2269ZM81.9146 15.512C83.4986 15.512 84.7786 16.016 85.7546 17.024C86.7306 18.016 87.2186 19.408 87.2186 21.2V29H83.8586V21.656C83.8586 20.6 83.5946 19.792 83.0666 19.232C82.5386 18.656 81.8186 18.368 80.9066 18.368C79.9786 18.368 79.2426 18.656 78.6986 19.232C78.1706 19.792 77.9066 20.6 77.9066 21.656V29H74.5466V15.704H77.9066V17.36C78.3546 16.784 78.9226 16.336 79.6106 16.016C80.3146 15.68 81.0826 15.512 81.9146 15.512ZM97.9018 15.512C98.9098 15.512 99.8058 15.736 100.59 16.184C101.374 16.616 101.982 17.264 102.414 18.128C102.862 18.976 103.086 20 103.086 21.2V29H99.7258V21.656C99.7258 20.6 99.4618 19.792 98.9338 19.232C98.4058 18.656 97.6858 18.368 96.7738 18.368C95.8458 18.368 95.1098 18.656 94.5658 19.232C94.0378 19.792 93.7738 20.6 93.7738 21.656V29H90.4138V11.24H93.7738V17.36C94.2058 16.784 94.7818 16.336 95.5018 16.016C96.2218 15.68 97.0218 15.512 97.9018 15.512ZM105.417 22.304C105.417 20.96 105.681 19.768 106.209 18.728C106.753 17.688 107.481 16.888 108.393 16.328C109.321 15.768 110.353 15.488 111.489 15.488C112.481 15.488 113.345 15.688 114.081 16.088C114.833 16.488 115.433 16.992 115.881 17.6V15.704H119.265V29H115.881V27.056C115.449 27.68 114.849 28.2 114.081 28.616C113.329 29.016 112.457 29.216 111.465 29.216C110.345 29.216 109.321 28.928 108.393 28.352C107.481 27.776 106.753 26.968 106.209 25.928C105.681 24.872 105.417 23.664 105.417 22.304ZM115.881 22.352C115.881 21.536 115.721 20.84 115.401 20.264C115.081 19.672 114.649 19.224 114.105 18.92C113.561 18.6 112.977 18.44 112.353 18.44C111.729 18.44 111.153 18.592 110.625 18.896C110.097 19.2 109.665 19.648 109.329 20.24C109.009 20.816 108.849 21.504 108.849 22.304C108.849 23.104 109.009 23.808 109.329 24.416C109.665 25.008 110.097 25.464 110.625 25.784C111.169 26.104 111.745 26.264 112.353 26.264C112.977 26.264 113.561 26.112 114.105 25.808C114.649 25.488 115.081 25.04 115.401 24.464C115.721 23.872 115.881 23.168 115.881 22.352ZM137.595 12.248L131.451 29H127.371L121.227 12.248H124.827L129.435 25.568L134.019 12.248H137.595ZM151.969 22.064C151.969 22.544 151.937 22.976 151.873 23.36H142.153C142.233 24.32 142.569 25.072 143.161 25.616C143.753 26.16 144.481 26.432 145.345 26.432C146.593 26.432 147.481 25.896 148.009 24.824H151.633C151.249 26.104 150.513 27.16 149.425 27.992C148.337 28.808 147.001 29.216 145.417 29.216C144.137 29.216 142.985 28.936 141.961 28.376C140.953 27.8 140.161 26.992 139.585 25.952C139.025 24.912 138.745 23.712 138.745 22.352C138.745 20.976 139.025 19.768 139.585 18.728C140.145 17.688 140.929 16.888 141.937 16.328C142.945 15.768 144.105 15.488 145.417 15.488C146.681 15.488 147.809 15.76 148.801 16.304C149.809 16.848 150.585 17.624 151.129 18.632C151.689 19.624 151.969 20.768 151.969 22.064ZM148.489 21.104C148.473 20.24 148.161 19.552 147.553 19.04C146.945 18.512 146.201 18.248 145.321 18.248C144.489 18.248 143.785 18.504 143.209 19.016C142.649 19.512 142.305 20.208 142.177 21.104H148.489ZM157.782 17.768C158.214 17.064 158.774 16.512 159.462 16.112C160.166 15.712 160.966 15.512 161.862 15.512V19.04H160.974C159.918 19.04 159.118 19.288 158.574 19.784C158.046 20.28 157.782 21.144 157.782 22.376V29H154.422V15.704H157.782V17.768ZM167.485 17.648C167.917 17.008 168.509 16.488 169.261 16.088C170.029 15.688 170.901 15.488 171.877 15.488C173.013 15.488 174.037 15.768 174.949 16.328C175.877 16.888 176.605 17.688 177.133 18.728C177.677 19.752 177.949 20.944 177.949 22.304C177.949 23.664 177.677 24.872 177.133 25.928C176.605 26.968 175.877 27.776 174.949 28.352C174.037 28.928 173.013 29.216 171.877 29.216C170.885 29.216 170.013 29.024 169.261 28.64C168.525 28.24 167.933 27.728 167.485 27.104V29H164.125V11.24H167.485V17.648ZM174.517 22.304C174.517 21.504 174.349 20.816 174.013 20.24C173.693 19.648 173.261 19.2 172.717 18.896C172.189 18.592 171.613 18.44 170.989 18.44C170.381 18.44 169.805 18.6 169.261 18.92C168.733 19.224 168.301 19.672 167.965 20.264C167.645 20.856 167.485 21.552 167.485 22.352C167.485 23.152 167.645 23.848 167.965 24.44C168.301 25.032 168.733 25.488 169.261 25.808C169.805 26.112 170.381 26.264 170.989 26.264C171.613 26.264 172.189 26.104 172.717 25.784C173.261 25.464 173.693 25.008 174.013 24.416C174.349 23.824 174.517 23.12 174.517 22.304ZM179.526 22.304C179.526 20.96 179.79 19.768 180.318 18.728C180.862 17.688 181.59 16.888 182.502 16.328C183.43 15.768 184.462 15.488 185.598 15.488C186.59 15.488 187.454 15.688 188.19 16.088C188.942 16.488 189.542 16.992 189.99 17.6V15.704H193.374V29H189.99V27.056C189.558 27.68 188.958 28.2 188.19 28.616C187.438 29.016 186.566 29.216 185.574 29.216C184.454 29.216 183.43 28.928 182.502 28.352C181.59 27.776 180.862 26.968 180.318 25.928C179.79 24.872 179.526 23.664 179.526 22.304ZM189.99 22.352C189.99 21.536 189.83 20.84 189.51 20.264C189.19 19.672 188.758 19.224 188.214 18.92C187.67 18.6 187.086 18.44 186.462 18.44C185.838 18.44 185.262 18.592 184.734 18.896C184.206 19.2 183.774 19.648 183.438 20.24C183.118 20.816 182.958 21.504 182.958 22.304C182.958 23.104 183.118 23.808 183.438 24.416C183.774 25.008 184.206 25.464 184.734 25.784C185.278 26.104 185.854 26.264 186.462 26.264C187.086 26.264 187.67 26.112 188.214 25.808C188.758 25.488 189.19 25.04 189.51 24.464C189.83 23.872 189.99 23.168 189.99 22.352Z" fill="white"/>
<defs>
<clipPath id="clip0">
<rect width="27.4286" height="27.4286" fill="white" transform="translate(6.85715 6.85714)"/>
</clipPath>
</defs>
</svg>
